<?xml version="1.0" encoding="utf-8"?>
<!-- Generator: Adobe Illustrator 22.0.1, SVG Export Plug-In . SVG Version: 6.00 Build 0)  -->
<svg version="1.1" id="Layer_2" xmlns="http://www.w3.org/2000/svg" xmlns:xlink="http://www.w3.org/1999/xlink" x="0px" y="0px"
	 width="16px" height="16px" viewBox="0 0 16 16" enable-background="new 0 0 16 16" xml:space="preserve">
<g>
	<rect x="3.3334" y="11.3334" width="1.3334" height="1.3332"/>
	<rect x="6" y="11.3334" width="1.3334" height="1.3332"/>
	<rect x="8.6666" y="11.3334" width="1.3334" height="1.3332"/>
	<rect x="3.3334" y="8.6666" width="1.3334" height="1.3334"/>
	<rect x="6" y="8.6666" width="1.3334" height="1.3334"/>
	<rect x="8.6666" y="8.6666" width="1.3334" height="1.3334"/>
	<rect x="11.3334" y="8.6666" width="1.3332" height="1.3334"/>
	<rect x="3.3334" y="6" width="1.3334" height="1.3334"/>
	<rect x="6" y="6" width="1.3334" height="1.3334"/>
	<rect x="8.6666" y="6" width="1.3334" height="1.3334"/>
	<rect x="11.3334" y="6" width="1.3332" height="1.3334"/>
</g>
<path d="M0,0v16h16V0H0z M15,15H1V4h14V15z M15,3H1V1h14V3z"/>
</svg>
