<?xml version="1.0" encoding="utf-8"?>
<!-- Generator: Adobe Illustrator 22.0.1, SVG Export Plug-In . SVG Version: 6.00 Build 0)  -->
<svg version="1.1" id="Layer_1" xmlns="http://www.w3.org/2000/svg" xmlns:xlink="http://www.w3.org/1999/xlink" x="0px" y="0px"
	 width="16px" height="16px" viewBox="0 0 16 16" enable-background="new 0 0 16 16" xml:space="preserve">
<title>Icon / user</title>
<desc>Created with Sketch.</desc>
<g id="Symbols">
	<g id="Icon-_x2F_-user">
		<g id="Mask">
			<path fill="#555555" id="path-1_1_" d="M13,11.01718h-1c-1.1,0-2-0.90141-2-2.00313V8.41311c0.4-0.50078,0.7-1.10172,0.9-1.80282
				c0-0.10016,0.1-0.20031,0.2-0.30047c0.4-0.40063,0.4-1.00156,0.2-1.50235c-0.1-0.10016-0.1-0.10016-0.1-0.20031
				c0-0.60094,0-1.20188,0-1.70266c0-0.7011-0.2-1.40219-0.7-2.00313c-0.4-0.50078-1-0.7011-1.5-0.80125
				c-0.8-0.10016-1.5-0.10016-2.2,0C6.2,0.30043,5.6,0.6009,5.3,1.10168C5,1.60246,4.9,2.10325,4.8,2.70419
				c0,0.60094,0,1.20188,0,1.80282c0,0.10016-0.1,0.20031-0.1,0.30047c-0.3,0.60094-0.2,1.20188,0.2,1.6025
				C5,6.51013,5.1,6.61029,5.1,6.71045C5.3,7.31139,5.6,7.81217,6,8.31295v0.7011c0,1.10172-0.9,2.00313-2,2.00313H3
				c0,0-1.8,0.50078-3,3.00469v1.00156C0,15.62437,0.4,16.025,1,16.025h14c0.5,0,1-0.40063,1-1.00156v-1.00156
				C14.8,11.51796,13,11.01718,13,11.01718z"/>
		</g>
	</g>
</g>
</svg>
