<svg xmlns="http://www.w3.org/2000/svg" viewBox="0 0 414.31 266.9"><defs><style>.cls-1{fill:#02254c;}.cls-2{fill:#fff;}.cls-3{fill:#ff4a47;}.cls-4{fill:#ffb3ba;}.cls-5{fill:#ecc476;}.cls-6{fill:#f93332;}</style></defs><title>santa</title><g id="Layer_2" data-name="Layer 2"><g id="Layer_1-2" data-name="Layer 1"><path class="cls-1" d="M394.93,266C357.5,201.08,314,165.43,214.25,165.43S57.35,203.47,33.57,266Z"/><path class="cls-2" d="M270.92,131.48a10.24,10.24,0,0,1-1.42,5.74,24.68,24.68,0,0,1-2,2.44,15.52,15.52,0,0,1-1.27,2.06,2.4,2.4,0,0,1-1.38.3l-7.94.09a2.73,2.73,0,0,1-1.27-.19,2.53,2.53,0,0,1-1-1.23,31.7,31.7,0,0,1-2.22-7.13q-2.15-9.62-3.85-19.33a3.32,3.32,0,0,1,0-1.42,2.61,2.61,0,0,1,.64-1.05,7.1,7.1,0,0,1,5.64-2.14c2.41.14,4.34,1.48,6.43,2.46s3.69,1.93,4.6,4.09a7.31,7.31,0,0,1-.64,6.77A10.36,10.36,0,0,1,270.92,131.48Z"/><path class="cls-2" d="M143.84,130.61c-.46-.5-3.3,3.14-3.52,3.52a10.37,10.37,0,0,0-1.39,4.81c-.07,2.08.1,3.49,2.05,4.24a26.49,26.49,0,0,0,6.92,1.4,8.61,8.61,0,0,0,3.32-.18,6.66,6.66,0,0,0,3.9-3.82,19.73,19.73,0,0,0,1.24-5.48l2.39-18.59c.28-2.2,2-5.27.3-6.7-1.24-1-4.67-.57-6.22-.12-5.38,1.56-10.66,4.53-11.88,10.45A12.1,12.1,0,0,0,143.84,130.61Z"/><path class="cls-2" d="M331.77,35.48a3.94,3.94,0,0,0-1.49-3.75c-1-1-2.33-1.63-3.31-2.66a6.78,6.78,0,0,1,1-9.82,15.85,15.85,0,0,1-4.67-3.18c-1.27-1.41-3.62-3.49-3.15-5.33,1.26-4.94,7.16-5.15,9.46-4.95A15.88,15.88,0,0,1,336,8.36c1.25-4.19,3.74-7.15,8.08-6.65s8,6.4,8.31,10.76c2.71-1.22,8-3.13,10.55-1.55a7.81,7.81,0,0,1,3.6,7.61,15.05,15.05,0,0,1-8,10.53c-4.75,2.48-5.42,1.12-8.4.29.74,2.37,3.55,3.28,3.19,5.74s-.53,4.82-5.37,7.35c-2.25,1.18-8.55.08-10.67-1.33-4.17-2.78-3.41-4.23-5.53-5.63"/><path class="cls-3" d="M152.24,87.55c2.74-13.41,8.46-25.74,19.32-34.06,14.18-10.86,34.7-16.53,52.57-16.73a79.16,79.16,0,0,1,18.34,1.59c6.06,1.37,11.83,3.78,17.7,5.8a166.4,166.4,0,0,0,17.9,5,98.64,98.64,0,0,0,16.3,2.46c7.7.4,14.79-1.55,22.15-3.84,4.83-1.5,14.44-6.16,15.84-11-4.35,8.09-4.12,15.94-18.76,24.69-10.5,6.28-23.42,6.64-34.85,11-4,1.54-11.07,4.94-13.93,8.17s-3.9,5.58-2.63,9.71c.37,1.21.92,2.69,0,3.6a3,3,0,0,1-1.36.67,138.08,138.08,0,0,1-37.3,5c-6.92,0-13.82-.65-20.71-1.26L177.66,96A54.74,54.74,0,0,1,165.35,94c-4.12-1.36-8-3.7-12.25-4.33"/><polygon class="cls-4" points="247.3 106.93 159.44 106.36 152.52 147.23 258.7 147.23 247.3 106.93"/><path class="cls-2" d="M168.73,95.4c-5.77-6.93-14.43-11-24.22-3.58a13.57,13.57,0,0,0-4.65,9.68c0,2.62,2.28,5.09,4.39,6.65,2.68,2,6.49,1.26,9.5-.16a5.54,5.54,0,0,1,2.1-.7,5.65,5.65,0,0,1,3.17,1.38c3.68,2.48,8.55,5.47,13,4.91s10.34-2.78,12.41-6.71c7.26,6.26,16.09,4.62,22.13-.66a2.36,2.36,0,0,1,3.77,0,17.91,17.91,0,0,0,19.66.2,24.27,24.27,0,0,0,8.45,4.63c3.68,1.36,9.4,2.63,12.55.29a6.2,6.2,0,0,1,1.8-1.14,5.45,5.45,0,0,1,2.33.06c2.77.4,4.29.64,6.88-.4,3.6-1.44,5.55-1.4,7.46-6.88,1.56-4.48-1.76-9.28-4.93-10a8.36,8.36,0,0,1-2.14-.61c-.86-.45-4,1-4.08,0-.47-6.08-6.54-9.07-11.77-9.07A16.49,16.49,0,0,0,236,86.64c-2.49,1.58-3,3.16-5.47,4.75-4.33-4.79-10-10.77-19.71-5a15.89,15.89,0,0,0-4.09,4.32c-.88-.42-3.19-3.2-3.83-3.94a22.15,22.15,0,0,0-18.48-7.3c-6.56.83-14.3,8.26-14.39,14.87"/><path class="cls-5" d="M145.52,227.17c-3.77-8.52-13.53-12.88-22.8-13.8s-18.6.8-27.91.67c-30.86-.45-59.93-23.83-67-53.88a290,290,0,0,0,4.66,38.73A218.07,218.07,0,0,0,1.16,186.5c7.66,13.65,16.32,27.08,28.32,37.14s27.88,16.42,43.35,14c9.72-1.52,19-6.39,28.84-5.72,16.11,1.1,27.17,16.13,35.9,29.71"/><path class="cls-1" d="M96.47,232.84c19.15-1.12,30.69,14.35,40,28.84.43.67,1.52,0,1.08-.63-9.57-14.87-21.52-30.6-41.1-29.46-.8,0-.8,1.3,0,1.25Z"/><path class="cls-1" d="M81.4,235.9c2.07-.56,4.14-1.1,6.23-1.58.78-.18.45-1.39-.33-1.21-2.09.49-4.16,1-6.23,1.58a.63.63,0,0,0,.33,1.21Z"/><path class="cls-1" d="M13.16,189.86Q7,187.59.78,185.64a.63.63,0,0,0-.71.92C15,213.44,38.26,242.68,72.68,237.76c.79-.11.46-1.32-.33-1.21-33.81,4.83-56.6-24.34-71.2-50.63l-.71.92q6.25,2,12.38,4.22c.76.28,1.08-.93.33-1.21Z"/><path class="cls-1" d="M41.91,187.33a70,70,0,0,1-14-27.6.63.63,0,0,0-1.23.17,306.14,306.14,0,0,0,4.68,38.89l.92-.71Q26.69,195.39,21,193c-.73-.31-1.37.77-.63,1.08q5.71,2.42,11.29,5.11a.63.63,0,0,0,.92-.71,303.53,303.53,0,0,1-4.64-38.56l-1.23.17A71.42,71.42,0,0,0,41,188.21c.51.62,1.39-.27.88-.88Z"/><path class="cls-1" d="M52.36,197.55q-2.45-2-4.73-4.13c-.58-.55-1.47.33-.88.88q2.28,2.16,4.73,4.13c.62.5,1.51-.38.88-.88Z"/><path class="cls-1" d="M121.54,212.42c-11.1-.78-22.21,1.23-33.29.21S67,207.47,57.82,201.53c-.68-.44-1.31.64-.63,1.08,8.64,5.57,18.21,9.64,28.46,11,11.92,1.58,23.94-.77,35.9.07.8.06.8-1.19,0-1.25Z"/><path class="cls-1" d="M145.51,226.59c-3.06-6.44-9-10.37-15.61-12.55-.77-.25-1.09,1-.33,1.21,6.32,2.08,11.94,5.82,14.86,12,.34.73,1.42.09,1.08-.63Z"/><path class="cls-5" d="M319.32,167.61c9-.73,18-2.23,26.11-6.17s15.18-10.57,18.06-19.09c2.3-6.79,1.81-14.16,1.87-21.33.18-24,9-50.64,30.67-61.13a40.44,40.44,0,0,0-7.73,26.29q13.05-5.49,26-11.19c-9.2,6.29-13.27,17.88-14.57,29s-.43,22.36-2.5,33.32c-3.31,17.52-14.09,33.06-27.78,44.48s-30.18,19-47.06,24.8"/><polygon class="cls-6" points="325.13 265.61 108.25 265.61 102.25 145.6 316.64 140.35 325.13 265.61"/><polygon class="cls-3" points="290.59 265.61 107.32 265.61 102.25 145.6 283.42 140.35 290.59 265.61"/><polygon class="cls-5" points="178.02 265.61 145.76 265.61 144.86 145.6 176.76 142.35 178.02 265.61"/><path class="cls-3" d="M166.42,143.07c3.23-8.58,14.2-8.5,18.23-.64l2.16-3.76-13.41,0h-2.68a2.63,2.63,0,0,0,3.76,1.47,26.82,26.82,0,0,1,6.62,1.23c3.11.83,4.44-4,1.33-4.82-3.79-1-17.19-3.65-17,3.9.07,2.54,2.32,3.13,4.37,3.22,5.64.25,11.34,0,17,0a2.53,2.53,0,0,0,2.16-3.76c-6.17-12-22.72-10.49-27.37,1.83-1.14,3,3.7,4.32,4.82,1.33Z"/><path class="cls-3" d="M231.16,136.57l-.5-.13a2.57,2.57,0,0,0-3.08,1.75l0,.06c-1.06,2.88,3,4,4.57,1.93,1.94-2.59,3.52-4.89,7.08-5.16a8.34,8.34,0,0,1,8.12,5.18l2.41-3.16-5.88.08c-1.83,0-4.95-.52-6.61.09q-1.12-.31-1.26,1-1.25,1.22.24,1.12c.5.39,2.13.41,2.78.54l6.05,1.2c3.14.62,4.49-4.2,1.33-4.82s-16.26-5.21-15.46,2.1c.26,2.35,2.52,3.52,4.65,3.8,4.56.6,9.56,0,14.16-.09,1.45,0,3.06-1.61,2.41-3.16-2.05-4.89-6.29-8.65-11.81-8.86-5.94-.22-9.28,3.31-12.52,7.64l4.57,1.93,0-.06-3.08,1.75.5.13c3.11.82,4.44-4,1.33-4.82Z"/><path class="cls-1" d="M101.62,149.21l1.29,14.08c.07.79,1.32.8,1.25,0l-1.29-14.08c-.07-.79-1.32-.8-1.25,0Z"/><path class="cls-1" d="M104.13,172l-.2,4.66c0,.8,1.21.8,1.25,0l.2-4.66c0-.8-1.21-.8-1.25,0Z"/><path class="cls-1" d="M105.24,190.72q-.61,35.43,1.37,70.82c0,.8,1.29.81,1.25,0q-2-35.38-1.37-70.82a.63.63,0,0,0-1.25,0Z"/><path class="cls-1" d="M111.86,146.23q46.82-2.15,93.67-3.19a.63.63,0,0,0,0-1.25q-46.85,1-93.67,3.19c-.8,0-.81,1.29,0,1.25Z"/><path class="cls-1" d="M217.63,143.49c22.12-3.88,44.47,1,66.7-.73.8-.06.8-1.31,0-1.25-22.35,1.73-44.8-3.12-67,.78-.79.14-.46,1.34.33,1.21Z"/><path class="cls-1" d="M289.88,247.36c-.15,3.14,0,6.25.08,9.39.06,4.18-1,11.43-6.8,7.87-.69-.42-1.31.66-.63,1.08,2.27,1.41,6.4,1.52,8-1.15,1.08-1.85.74-5.11.74-7.17,0-3.34-.25-6.67-.09-10,0-.8-1.21-.8-1.25,0Z"/><path class="cls-1" d="M287.35,180.16c1.54,20.1,2.46,40.24,2.55,60.4a.63.63,0,0,0,1.25,0c-.09-20.16-1-40.3-2.55-60.4-.06-.8-1.31-.8-1.25,0Z"/><path class="cls-1" d="M283.81,147.23q1.64,12.66,2.86,25.37c.08.79,1.33.8,1.25,0q-1.22-12.71-2.86-25.37c-.1-.79-1.35-.8-1.25,0Z"/><path class="cls-1" d="M316,142.52l3.77,25.27c.12.79,1.32.46,1.21-.33l-3.77-25.27c-.12-.79-1.32-.46-1.21.33Z"/><path class="cls-1" d="M320.3,178.26a38.16,38.16,0,0,0,1.13,11.45.63.63,0,0,0,1.21-.33,37,37,0,0,1-1.08-11.12c0-.8-1.21-.8-1.25,0Z"/><path class="cls-1" d="M321.75,202.47a30.75,30.75,0,0,1,.77,8.47c0,.8,1.21.8,1.25,0a32,32,0,0,0-.81-8.81c-.18-.78-1.39-.45-1.21.33Z"/><path class="cls-1" d="M322.24,227.72a206,206,0,0,1,2,35.24.63.63,0,0,0,1.25,0,207.91,207.91,0,0,0-2.07-35.57c-.11-.79-1.32-.46-1.21.33Z"/><path class="cls-1" d="M296.62,266.17l3.32-.72c.79-.17.45-1.37-.33-1.21l-3.32.72c-.79.17-.45,1.37.33,1.21Z"/><path class="cls-1" d="M316.47,266.24h8.67a.63.63,0,0,0,0-1.25h-8.67a.63.63,0,0,0,0,1.25Z"/><path class="cls-1" d="M314.47,265.65h-8a.63.63,0,0,0,0,1.25h8a.63.63,0,0,0,0-1.25Z"/><path class="cls-1" d="M154.93,140.92c1.14-9,3.61-17.67,4.75-26.65.1-.8-1.15-.79-1.25,0-1.14,9-3.61,17.67-4.75,26.65-.1.8,1.15.79,1.25,0Z"/><path class="cls-1" d="M257.3,138c-2.34-8.25-5.52-16-7.4-24.4-.17-.78-1.38-.45-1.21.33,1.88,8.42,5.06,16.15,7.4,24.4a.63.63,0,0,0,1.21-.33Z"/><path class="cls-1" d="M177.31,127.22c.7-4,3.54-8.36,8-8.62s7.59,3.75,8.49,7.68c.18.78,1.39.45,1.21-.33-1-4.53-4.68-8.81-9.7-8.6s-8.45,5-9.25,9.54c-.14.79,1.07,1.12,1.21.33Z"/><path class="cls-1" d="M218.8,126.9c.7-4,3.54-8.36,8-8.62s7.59,3.75,8.49,7.68c.18.78,1.39.45,1.21-.33-1-4.53-4.68-8.81-9.7-8.6s-8.45,5-9.25,9.54c-.14.79,1.07,1.12,1.21.33Z"/><path class="cls-1" d="M139.26,103.09a11.37,11.37,0,0,0,17.19,6.19c.68-.43.05-1.51-.63-1.08a10.09,10.09,0,0,1-15.35-5.44c-.25-.76-1.46-.44-1.21.33Z"/><path class="cls-1" d="M177.9,112.51a18.39,18.39,0,0,0,6.91-5.2c.5-.62-.38-1.51-.88-.88a17.62,17.62,0,0,1-6.66,5c-.73.32-.1,1.4.63,1.08Z"/><path class="cls-1" d="M157.12,109.65a19.6,19.6,0,0,0,13,4.55.63.63,0,0,0,0-1.25A18.25,18.25,0,0,1,158,108.77c-.61-.52-1.5.36-.88.88Z"/><path class="cls-1" d="M186.15,108.82a15,15,0,0,0,20.2-2c.53-.6-.35-1.49-.88-.88a13.76,13.76,0,0,1-18.68,1.82c-.64-.49-1.26.6-.63,1.08Z"/><path class="cls-1" d="M208.9,106A23.7,23.7,0,0,0,227.16,108a.63.63,0,0,0-.33-1.21,22.37,22.37,0,0,1-17.3-1.81c-.71-.39-1.34.69-.63,1.08Z"/><path class="cls-1" d="M235.38,108.9c4,2.44,15.9,7.29,18.5.85.3-.75-.91-1.07-1.21-.33-2.08,5.15-13.49.33-16.67-1.6a.63.63,0,0,0-.63,1.08Z"/><path class="cls-1" d="M162.78,90.1a17,17,0,0,1,5.49,4.42c.51.62,1.39-.26.88-.88A17.85,17.85,0,0,0,163.42,89c-.71-.37-1.35.71-.63,1.08Z"/><path class="cls-1" d="M142.2,95.19a16.93,16.93,0,0,1,15-6.77c.8.06.8-1.19,0-1.25a18.23,18.23,0,0,0-16,7.39c-.49.64.59,1.26,1.08.63Z"/><path class="cls-1" d="M246.29,83.9c5.44.33,10.44,2.91,11.35,8.72a.63.63,0,0,0,.77.44c6.86-2.48,12.71,5.32,9.46,11.58-2.63,5.06-8.79,6.41-13.93,5.08a.63.63,0,0,0-.33,1.21c9.16,2.36,21.34-5.78,14.65-15.76a9,9,0,0,0-4.15-3.49,11,11,0,0,0-3.47-.5c-2.25-.2-1.21.54-2.4-1.43-2.78-4.61-6.49-6.76-12-7.09-.8,0-.8,1.2,0,1.25Z"/><path class="cls-1" d="M170,93.67C174.9,76.61,198.77,75,206.15,91a.63.63,0,0,0,1.08,0,12.79,12.79,0,0,1,22.49.29.63.63,0,0,0,1,.13,55.07,55.07,0,0,1,6-4.48c.67-.43,0-1.52-.63-1.08-.89.57-4.55,4-5.81,3.74-.76-.17-2.47-3-3.23-3.64a14.14,14.14,0,0,0-10.05-2.8,13.78,13.78,0,0,0-8.67,4.2c-1.75,1.87-1.11,2.37-2.63,0a19.33,19.33,0,0,0-3.58-4.13c-11.3-9.78-29.24-3.95-33.3,10.08a.63.63,0,0,0,1.21.33Z"/><path class="cls-1" d="M321.71,45.4a44.92,44.92,0,0,0,8.82-6.62c.58-.56-.3-1.44-.88-.88a43.59,43.59,0,0,1-8.57,6.43.63.63,0,0,0,.63,1.08Z"/><path class="cls-1" d="M284.23,50.8c10.52,1.5,21,1.13,31.07-2.43.75-.27.43-1.47-.33-1.21-9.86,3.48-20.12,3.89-30.4,2.43-.79-.11-1.13,1.09-.33,1.21Z"/><path class="cls-1" d="M267.08,46.57a118.69,118.69,0,0,0,11.5,3.18c.78.17,1.12-1,.33-1.21a118.69,118.69,0,0,1-11.5-3.18c-.77-.25-1.09,1-.33,1.21Z"/><path class="cls-1" d="M250.59,41.72c3.34,1,6.68,2.06,10,3a.63.63,0,0,0,.33-1.21c-3.35-1-6.7-2-10-3-.77-.24-1.1,1-.33,1.21Z"/><path class="cls-1" d="M168.55,57.07C188.44,38,218.44,33.89,244.45,40.2c.78.19,1.11-1,.33-1.21-26.45-6.41-56.89-2.18-77.11,17.19-.58.56.3,1.44.88.88Z"/><path class="cls-1" d="M153.12,86.37a53.26,53.26,0,0,1,10.37-23.61c.48-.64-.6-1.27-1.08-.63A53.9,53.9,0,0,0,151.92,86c-.13.79,1.07,1.13,1.21.33Z"/><path class="cls-1" d="M318.4,59.5c8.12-5.68,14.3-14.1,13.39-24.41-.07-.8-1.32-.8-1.25,0,.87,9.87-5,17.89-12.77,23.33-.65.46,0,1.54.63,1.08Z"/><path class="cls-1" d="M281.5,72.05C291.62,68.84,302.17,67.18,312,63c.74-.31.1-1.39-.63-1.08-9.7,4.14-20.16,5.76-30.17,8.94-.76.24-.44,1.45.33,1.21Z"/><path class="cls-1" d="M264.31,90.55c-7-6.35,5.61-13.62,10.66-16,.73-.34.09-1.42-.63-1.08-5.8,2.71-18.76,10.78-10.91,17.94.59.54,1.48-.34.88-.88Z"/><path class="cls-1" d="M320,10.75c-.15,4.36,3.94,6.87,7.5,8.41l.15-1.14a6.1,6.1,0,0,0-4.55,7.38c.84,4.28,5.34,6.14,9.19,6.75.79.12,1.13-1.08.33-1.21a12,12,0,0,1-6.47-2.66c-2.83-2.67-2.47-8.15,1.84-9.07a.63.63,0,0,0,.15-1.14c-3.1-1.33-7-3.44-6.88-7.33,0-.8-1.22-.8-1.25,0Z"/><path class="cls-1" d="M362.36,10.21a11.11,11.11,0,0,0-5-1.35c-1.23,0-3.14,1.22-4.13.76-.3-.14-1.68-4.39-2.07-5a11.3,11.3,0,0,0-3.46-3.37c-5.6-3.4-13.13.25-13.37,6.87l1.07-.44c-2.5-3.13-6.17-3.1-9.79-2.14a.63.63,0,0,0,.33,1.21c3.14-.83,6.36-1,8.58,1.82.36.45,1,.05,1.07-.44.22-6,7.29-8.72,11.93-5.43,2.83,2,4.2,5.13,4.71,8.48a.63.63,0,0,0,.92.37c2.71-1.82,5.73-1.69,8.61-.3.72.35,1.36-.73.63-1.08Z"/><path class="cls-1" d="M353.16,37.94c1.45-3.57.93-7-2-9.6l-.76,1c8.11,5.91,17.49-4.61,16.43-12.84-.1-.79-1.35-.8-1.25,0,.93,7.28-7.17,17.14-14.55,11.76-.57-.42-1.29.52-.76,1,2.66,2.34,2.94,5.3,1.69,8.38-.3.75.91,1.07,1.21.33Z"/><path class="cls-1" d="M342.2,43.32a12.08,12.08,0,0,0,5-.28.63.63,0,0,0-.33-1.21,10.54,10.54,0,0,1-4.37.28c-.79-.12-1.13,1.09-.33,1.21Z"/><path class="cls-1" d="M331.81,36a19.3,19.3,0,0,0,4,4.37c.62.5,1.51-.38.88-.88a18.26,18.26,0,0,1-3.81-4.12c-.45-.66-1.53,0-1.08.63Z"/><path class="cls-3" d="M113.84,116.94a120.42,120.42,0,0,1,16.21,12.59c.59.55,1.48-.34.88-.88a122.27,122.27,0,0,0-16.46-12.79c-.68-.44-1.3.64-.63,1.08Z"/><path class="cls-3" d="M112.94,132.58q7.4-9.73,15.35-19c.52-.61-.36-1.5-.88-.88q-8.05,9.41-15.54,19.27c-.49.64.6,1.26,1.08.63Z"/><path class="cls-3" d="M116.82,110a198.47,198.47,0,0,1,7.61,22.15.63.63,0,0,0,1.21-.33A198.47,198.47,0,0,0,118,109.66c-.3-.73-1.51-.41-1.21.33Z"/><path class="cls-1" d="M284.81,98.65a4.09,4.09,0,0,0,.22,5.88,6.1,6.1,0,0,0,7.12.6c1.91-1.13,3.21-3.47,2.18-5.63a3.92,3.92,0,0,0-5.43-2,.63.63,0,0,0,.63,1.08,2.77,2.77,0,0,1,3.88,2c.33,1.69-1.07,3.11-2.49,3.72a4.88,4.88,0,0,1-4.31-.19,2.93,2.93,0,0,1-.92-4.61c.56-.58-.32-1.46-.88-.88Z"/><path class="cls-2" d="M281.05,122.79a33.92,33.92,0,0,0,5.62,6.12c.61.52,1.5-.36.88-.88a32.64,32.64,0,0,1-5.42-5.87c-.46-.65-1.55,0-1.08.63Z"/><path class="cls-2" d="M281.69,128.77a19.41,19.41,0,0,1,3.88-4.89c.6-.54-.29-1.43-.88-.88a20.48,20.48,0,0,0-4.08,5.14.63.63,0,0,0,1.08.63Z"/><path class="cls-3" d="M309,128.17A24.56,24.56,0,0,1,316,121.5c.67-.43,0-1.52-.63-1.08a26.15,26.15,0,0,0-7.37,7.12c-.46.66.62,1.29,1.08.63Z"/><path class="cls-3" d="M325.57,114.66l5.95-4.08c.66-.45,0-1.54-.63-1.08l-5.95,4.08c-.66.45,0,1.54.63,1.08Z"/><path class="cls-1" d="M336.31,127.79a21.07,21.07,0,0,0,7,5.73c.72.37,1.35-.71.63-1.08a20.24,20.24,0,0,1-6.73-5.53c-.5-.63-1.38.26-.88.88Z"/><path class="cls-1" d="M337.21,135.6a41.4,41.4,0,0,1,4.57-8.26c.47-.66-.62-1.28-1.08-.63a42.79,42.79,0,0,0-4.7,8.56c-.31.74.9,1.07,1.21.33Z"/><path class="cls-2" d="M103.88,87.29c-1.94-.33-2.66,2-2,3.48a4,4,0,0,0,5.34,2,3.57,3.57,0,0,0,1.41-5,3.32,3.32,0,0,0-4.8-.63c-.62.51.27,1.39.88.88a2.05,2.05,0,0,1,2.66.2,2.15,2.15,0,0,1-.19,3,2.45,2.45,0,0,1-3,.27,2.7,2.7,0,0,1-1.2-1.39c-.12-.36-.19-1.72.57-1.59s1.12-1.07.33-1.21Z"/><path class="cls-1" d="M100.33,127.74l-7-2.06a.63.63,0,0,0-.33,1.21l7,2.06a.63.63,0,0,0,.33-1.21Z"/><path class="cls-1" d="M85.32,122.77l-7.49-1.56c-.78-.16-1.12,1-.33,1.21L85,124c.78.16,1.12-1,.33-1.21Z"/><path class="cls-2" d="M119.4,67.65c.28,2.63-.59,9.77,2.91,10.77,1.63.47,3-.81,4.49-.94,4.85-.42,3.12,8.56,3.1,11.76a.63.63,0,0,0,1.25,0c0-3.3,1-8.1,0-11.26a2.53,2.53,0,0,0-1.93-2.09c-1.43-.38-3,.56-4.29.92-2.71.74-3.28-.1-3.61-2.91-.24-2.08-.45-4.17-.67-6.25-.08-.79-1.34-.8-1.25,0Z"/><path class="cls-2" d="M314.78,95.11a6.14,6.14,0,0,1,2.69-7.79c1.82-.94,3.86-.06,5.58-1.07,2.76-1.61,1.45-5.75,3.93-7.59.64-.47,0-1.56-.63-1.08a6.33,6.33,0,0,0-2.26,4,7.43,7.43,0,0,1-.58,2c-.9,1.36-2.45,1.57-4,1.86a9.07,9.07,0,0,0-2.33.58,7.38,7.38,0,0,0-3.52,9.67c.33.73,1.4.1,1.08-.63Z"/><path class="cls-1" d="M145.39,213.91l.83,47.41a.63.63,0,0,0,1.25,0l-.83-47.41a.63.63,0,0,0-1.25,0Z"/><path class="cls-1" d="M144.81,180.44l.45,25.8a.63.63,0,0,0,1.25,0l-.45-25.8a.63.63,0,0,0-1.25,0Z"/><path class="cls-1" d="M144.24,147.67l.44,25.1a.63.63,0,0,0,1.25,0l-.44-25.1a.63.63,0,0,0-1.25,0Z"/><path class="cls-1" d="M177.3,257.22l.1,4.9a.63.63,0,0,0,1.25,0l-.1-4.9a.63.63,0,0,0-1.25,0Z"/><path class="cls-1" d="M176,197l1.1,53.18a.63.63,0,0,0,1.25,0L177.3,197a.63.63,0,0,0-1.25,0Z"/><path class="cls-1" d="M175,145.26,175.9,190a.63.63,0,0,0,1.25,0l-.93-44.78a.63.63,0,0,0-1.25,0Z"/><path class="cls-1" d="M333.54,201.79q-5.87,2.31-11.92,4.07a.63.63,0,0,0,.33,1.21q6.06-1.76,11.92-4.07c.74-.29.42-1.5-.33-1.21Z"/><path class="cls-1" d="M383.5,164.33c-11.06,15.06-26,26.34-42.82,34.37-.73.35-.09,1.43.63,1.08,17-8.12,32.08-19.57,43.27-34.81.48-.65-.61-1.27-1.08-.63Z"/><path class="cls-1" d="M397.73,115.21A74.45,74.45,0,0,1,388,157.44a.63.63,0,0,0,1.08.63A75.67,75.67,0,0,0,399,115.21c-.06-.8-1.31-.8-1.25,0Z"/><path class="cls-1" d="M373.39,83.88c5-10,12.28-18.4,22.34-23.53l-.86-.86a42.42,42.42,0,0,0-7.81,26.6c0,.36.4.77.79.6Q401,81.17,414,75.46l-.63-1.08c-10.35,7.55-14,19.91-15.15,32.15-.08.8,1.17.79,1.25,0,1.15-11.73,4.58-23.81,14.53-31.07a.63.63,0,0,0-.63-1.08q-6.05,2.65-12.12,5.27c-1.81.78-11.32,6.08-13,4.81-.52-.39.11-4.07.2-4.93a39.84,39.84,0,0,1,1.66-7.87A42.18,42.18,0,0,1,396,60.13c.39-.55-.34-1.12-.86-.86-10.23,5.21-17.69,13.8-22.79,24-.36.72.72,1.35,1.08.63Z"/><path class="cls-1" d="M367.42,102.08a81,81,0,0,1,2.68-10.17c.26-.76-1-1.09-1.21-.33a81,81,0,0,0-2.68,10.17c-.15.79,1.05,1.12,1.21.33Z"/><path class="cls-1" d="M318.71,168.16c13.8-1.22,29.78-4.7,38.89-16.13,9.6-12,7.37-28.08,8.71-42.39.07-.8-1.18-.8-1.25,0-1.27,13.59.86,28.74-7.58,40.5-8.6,12-25,15.55-38.77,16.77-.79.07-.8,1.32,0,1.25Z"/><path class="cls-1" d="M229.92,265.65c14.88.07,29.75.22,44.63.64a.63.63,0,0,0,0-1.25c-14.87-.42-29.75-.57-44.63-.64a.63.63,0,0,0,0,1.25Z"/><path class="cls-1" d="M210.4,265.58l11.85,0a.63.63,0,0,0,0-1.25l-11.85,0a.63.63,0,0,0,0,1.25Z"/><path class="cls-1" d="M135.34,264.29c22.71-.25,45.38,1.89,68.09,1.26a.63.63,0,0,0,0-1.25c-22.71.63-45.38-1.51-68.09-1.26a.63.63,0,0,0,0,1.25Z"/><path class="cls-1" d="M108.08,266.37a195.93,195.93,0,0,1,19.86-1.88c.8,0,.81-1.29,0-1.25a199.22,199.22,0,0,0-20.19,1.92c-.79.12-.46,1.32.33,1.21Z"/><path class="cls-1" d="M286.91,145.39l.67-.67a.63.63,0,0,0-.88-.88l-.67.67a.63.63,0,0,0,.88.88Z"/><path class="cls-1" d="M308.19,141.55q4.16,0,8.32.18c.8,0,.8-1.22,0-1.25q-4.16-.17-8.32-.18a.63.63,0,0,0,0,1.25Z"/><path class="cls-1" d="M287.13,143.55c0-2.37,12.91-1.85,14.83-1.9a.63.63,0,0,0,0-1.25c-3.53.09-7.06,0-10.57.45-1.58.19-5.48.4-5.51,2.7a.63.63,0,0,0,1.25,0Z"/><path class="cls-1" d="M147.43,111.16c-5.92,3.1-9,9.81-6.36,16.22.49,1.18,1.63,2.19,1.33,3.45-.19.8-2.11,2.1-2.64,3a11,11,0,0,0-.77,9.07c.25.76,1.46.43,1.21-.33a9.64,9.64,0,0,1,4-11.44.64.64,0,0,0,.13-1c-5-6.12-3.11-14.32,3.78-17.93.71-.37.08-1.45-.63-1.08Z"/><path class="cls-1" d="M260.37,112.53a7,7,0,0,1,4.28,10.11.64.64,0,0,0,.22.86c6.58,3.77,7.12,12.1,1.06,16.61-.64.47,0,1.56.63,1.08,5.24-3.89,6.75-11.07,2.24-16.23-1-1.14-2.06-1.58-2.36-3.08-.25-1.25.69-2.94.4-4.42-.64-3.25-3.12-5.23-6.15-6.13a.63.63,0,0,0-.33,1.21Z"/><path class="cls-1" d="M107,265.56H15a.63.63,0,0,0,0,1.25h92a.63.63,0,0,0,0-1.25Z"/><path class="cls-1" d="M324.5,266.81H405a.63.63,0,0,0,0-1.25H324.5a.63.63,0,0,0,0,1.25Z"/><path class="cls-2" d="M18.75,205.72c13.54,13.32,29.9,24.8,49.67,24.5a.63.63,0,0,0,0-1.25c-19.46.3-35.47-11-48.78-24.14-.57-.56-1.46.32-.88.88Z"/><path class="cls-2" d="M391.64,101.15c-.87,18.06-2.54,38.31-10.93,54.66-7.39,14.4-20.38,24.73-32.81,34.59-.63.5.26,1.38.88.88,13-10.3,26.53-21.16,33.8-36.46,7.75-16.3,9.46-35.9,10.31-53.68,0-.8-1.21-.8-1.25,0Z"/><path class="cls-2" d="M168.68,149.84c1.26,36.89-.18,73.8,3,110.62.07.8,1.32.8,1.25,0-3.15-36.83-1.72-73.73-3-110.62,0-.8-1.28-.81-1.25,0Z"/></g></g></svg>