<svg xmlns="http://www.w3.org/2000/svg" viewBox="0 0 94.9 78.15"><defs><style>.cls-1{fill:#fff;}</style></defs><title>zvezdica</title><g id="Layer_2" data-name="Layer 2"><g id="Layer_1-2" data-name="Layer 1"><path class="cls-1" d="M67.32,78.15a1.63,1.63,0,0,1-.76-.19l-22-11.59L22.49,78a1.63,1.63,0,0,1-2.37-1.72L24.32,51.7,6.49,34.32a1.63,1.63,0,0,1,.91-2.79L32,28l11-22.33a1.63,1.63,0,0,1,2.93,0L57,28l24.64,3.58a1.63,1.63,0,0,1,.91,2.79L64.72,51.7l4.21,24.54a1.63,1.63,0,0,1-1.61,1.91ZM11.15,34.29,27.22,50a1.63,1.63,0,0,1,.47,1.45L23.9,73.53,43.76,63.08a1.63,1.63,0,0,1,1.52,0L65.15,73.53,61.36,51.4A1.63,1.63,0,0,1,61.83,50L77.9,34.29,55.69,31.06a1.63,1.63,0,0,1-1.23-.89L44.52,10,34.59,30.17a1.63,1.63,0,0,1-1.23.89Z"/><path class="cls-1" d="M26.26,16.58a1.63,1.63,0,0,1-1.52-1L19.6,2.22a1.63,1.63,0,1,1,3-1.18l5.13,13.31a1.64,1.64,0,0,1-1.52,2.22Z"/><path class="cls-1" d="M66,17.78a1.63,1.63,0,0,1-1.31-2.61l8.5-11.46a1.63,1.63,0,1,1,2.63,1.95l-8.5,11.46A1.63,1.63,0,0,1,66,17.78Z"/><path class="cls-1" d="M1.64,67a1.63,1.63,0,0,1-.89-3l12-7.72A1.63,1.63,0,1,1,14.52,59l-12,7.72A1.63,1.63,0,0,1,1.64,67Z"/><path class="cls-1" d="M19.87,22.21a1.63,1.63,0,0,1-1-.33L8.15,13.76a1.63,1.63,0,1,1,2-2.61l10.73,8.12a1.63,1.63,0,0,1-1,2.94Z"/><path class="cls-1" d="M88.12,70.43a1.63,1.63,0,0,1-1-.37L76.08,61a1.63,1.63,0,0,1,2.08-2.52l11,9.09a1.63,1.63,0,0,1-1,2.89Z"/><path class="cls-1" d="M93.26,55.12l-.22,0L79.7,53.29a1.63,1.63,0,0,1,.44-3.24l13.34,1.82a1.63,1.63,0,0,1-.22,3.25Z"/></g></g></svg>